<?xml version="1.0" encoding="UTF-8" standalone="no"?>
<!-- Created with Inkscape (http://www.inkscape.org/) -->

<svg
   width="200"
   height="100"
   viewBox="0 0 52.916665 26.458333"
   version="1.1"
   id="svg1"
   inkscape:version="1.3.2 (091e20e, 2023-11-25, custom)"
   sodipodi:docname="MrRusskyLogo_web.svg"
   inkscape:export-filename="MrRusskyLogo_v1.png"
   inkscape:export-xdpi="96"
   inkscape:export-ydpi="96"
   xmlns:inkscape="http://www.inkscape.org/namespaces/inkscape"
   xmlns:sodipodi="http://sodipodi.sourceforge.net/DTD/sodipodi-0.dtd"
   xmlns="http://www.w3.org/2000/svg"
   xmlns:svg="http://www.w3.org/2000/svg">
  <sodipodi:namedview
     id="namedview1"
     pagecolor="#ffffff"
     bordercolor="#000000"
     borderopacity="0.25"
     inkscape:showpageshadow="2"
     inkscape:pageopacity="0.0"
     inkscape:pagecheckerboard="0"
     inkscape:deskcolor="#d1d1d1"
     inkscape:document-units="px"
     inkscape:zoom="4.97"
     inkscape:cx="99.899396"
     inkscape:cy="58.853119"
     inkscape:window-width="1920"
     inkscape:window-height="1001"
     inkscape:window-x="-9"
     inkscape:window-y="-9"
     inkscape:window-maximized="1"
     inkscape:current-layer="g3" />
  <defs
     id="defs1" />
  <g
     inkscape:label="Capa 1"
     inkscape:groupmode="layer"
     id="layer1">
    <g
       id="g4"
       transform="translate(-1.5945767,-8.4312474)">
      <g
         id="g2"
         transform="rotate(-3.5113387,44.462563,-243.25691)">
        <rect
           style="fill:#fdf0d5;fill-opacity:1;stroke-width:3.61337;stroke-dasharray:none"
           id="rect2"
           width="20.544117"
           height="11.641666"
           x="1.9697347"
           y="8.0918837"
           inkscape:label="FondoA"
           ry="1.7223439" />
        <path
           style="font-weight:bold;font-size:11.2889px;line-height:1;font-family:Overpass;-inkscape-font-specification:'Overpass Bold';letter-spacing:0px;word-spacing:0px;fill:#c1121f;stroke-width:3.06917"
           d="M 8.2088395,17.931566 6.1881263,13.528894 q -0.039511,-0.08467 -0.084667,-0.197555 -0.045156,-0.112889 -0.079022,-0.225778 0.00564,0.09031 0.00564,0.214489 0.00564,0.124178 0.00564,0.220133 v 4.255916 H 4.5738136 V 9.8938684 H 6.0357262 L 8.039506,14.375562 q 0.056445,0.124178 0.1016001,0.248356 0.0508,0.118533 0.095956,0.248356 0.045156,-0.129823 0.090311,-0.254001 0.045156,-0.124178 0.095956,-0.242711 L 10.46662,9.8938684 h 1.371601 v 7.9022306 h -1.461913 v -4.267205 q 0,-0.1016 0,-0.225778 0.0056,-0.124178 0.0056,-0.2032 -0.03387,0.1016 -0.08467,0.220134 -0.04516,0.112889 -0.09031,0.208844 z M 18.75267,17.796099 V 14.80454 h -2.308581 q -0.784578,0 -1.360312,-0.338667 -0.575734,-0.338667 -0.891823,-0.897467 -0.310445,-0.558801 -0.310445,-1.230491 0,-0.643467 0.242711,-1.202268 0.248356,-0.5588 0.818446,-0.897467 0.575734,-0.3443116 1.563512,-0.3443116 h 3.708404 v 7.9022306 z m -5.435606,0 2.494847,-3.426182 h 1.873957 l -2.540002,3.426182 z m 3.166537,-4.368805 h 2.269069 v -2.15618 h -2.269069 q -0.428979,0 -0.666046,0.163689 -0.237066,0.163689 -0.333022,0.412045 -0.09596,0.248356 -0.09596,0.496712 0,0.276578 0.1016,0.524934 0.1016,0.248356 0.338667,0.4064 0.242712,0.1524 0.654757,0.1524 z"
           id="text1"
           aria-label="МЯ" />
      </g>
      <g
         id="g3"
         transform="rotate(3.4977982,98.500728,63.224307)">
        <rect
           style="fill:#c1121f;fill-opacity:1;stroke-width:5.51953;stroke-dasharray:none"
           id="rect2-0"
           width="47.936279"
           height="11.641666"
           x="2.0110686"
           y="25.628384"
           inkscape:label="FondoA"
           ry="1.7223443" />
        <path
           style="font-weight:bold;font-size:11.2889px;line-height:1;font-family:Overpass;-inkscape-font-specification:'Overpass Bold';letter-spacing:0px;word-spacing:0px;fill:#fdf0d5;stroke-width:3.06917"
           d="M 9.2123582,35.40033 V 32.408771 H 6.9037781 q -0.7845786,0 -1.3603125,-0.338667 -0.5757339,-0.338667 -0.8918231,-0.897468 -0.3104448,-0.5588 -0.3104448,-1.23049 0,-0.643467 0.2427113,-1.202268 0.2483559,-0.5588 0.8184453,-0.897467 0.5757339,-0.344312 1.5635127,-0.344312 h 3.708404 v 7.902231 z m -5.4356055,0 2.494847,-3.426182 H 8.1455571 L 5.6055545,35.40033 Z m 3.1665365,-4.368805 h 2.269069 v -2.15618 h -2.269069 q -0.4289782,0 -0.6660451,0.163689 -0.2370669,0.163689 -0.3330226,0.412045 -0.095956,0.248356 -0.095956,0.496712 0,0.276578 0.1016001,0.524934 0.1016001,0.248355 0.338667,0.4064 0.2427114,0.1524 0.6547562,0.1524 z m 5.5823588,4.368805 v -7.902231 h 1.461912 v 6.502407 h 3.23427 v -6.502407 h 1.461913 v 7.902231 z m 5.723472,1.936046 V 35.40033 h -0.587023 v -1.399824 h 2.060225 v 2.652892 z m 5.740391,-1.811869 q -0.920046,0 -1.557869,-0.3556 -0.632178,-0.3556 -1.021645,-0.942623 -0.383823,-0.592667 -0.558801,-1.315157 -0.174978,-0.72249 -0.174978,-1.461913 0,-0.699911 0.174978,-1.416757 0.180623,-0.722489 0.57009,-1.326445 0.395111,-0.609601 1.02729,-0.97649 0.632178,-0.366889 1.540935,-0.366889 0.750712,0 1.303868,0.254 0.553156,0.248356 0.914401,0.649112 0.366889,0.395111 0.5588,0.829734 l -1.309512,0.6096 q -0.191912,-0.293511 -0.395112,-0.502356 -0.2032,-0.214489 -0.462845,-0.327378 -0.254,-0.118533 -0.6096,-0.118533 -0.508001,0 -0.852312,0.248356 -0.344312,0.242711 -0.553156,0.643467 -0.208845,0.400756 -0.299156,0.87489 -0.09031,0.474133 -0.09031,0.925689 0,0.479779 0.101601,0.953913 0.1016,0.474133 0.321733,0.8636 0.220134,0.389467 0.558801,0.626534 0.338667,0.231423 0.812801,0.231423 0.508,0 0.852312,-0.282223 0.349956,-0.287867 0.620889,-0.733778 l 1.337735,0.502356 q -0.254,0.547512 -0.637823,0.982134 -0.383823,0.434623 -0.920045,0.682979 -0.536223,0.248355 -1.253068,0.248355 z m 7.11766,0 q -0.920045,0 -1.557868,-0.3556 -0.632179,-0.3556 -1.021646,-0.942623 -0.383822,-0.592667 -0.5588,-1.315157 -0.174978,-0.72249 -0.174978,-1.461913 0,-0.699911 0.174978,-1.416757 0.180622,-0.722489 0.570089,-1.326445 0.395112,-0.609601 1.02729,-0.97649 0.632179,-0.366889 1.540935,-0.366889 0.750712,0 1.303868,0.254 0.553156,0.248356 0.914401,0.649112 0.366889,0.395111 0.558801,0.829734 l -1.309513,0.6096 q -0.191911,-0.293511 -0.395111,-0.502356 -0.203201,-0.214489 -0.462845,-0.327378 -0.254,-0.118533 -0.609601,-0.118533 -0.508,0 -0.852312,0.248356 -0.344311,0.242711 -0.553156,0.643467 -0.208845,0.400756 -0.299156,0.87489 -0.09031,0.474133 -0.09031,0.925689 0,0.479779 0.1016,0.953913 0.1016,0.474133 0.321734,0.8636 0.220133,0.389467 0.5588,0.626534 0.338667,0.231423 0.812801,0.231423 0.508001,0 0.852312,-0.282223 0.349956,-0.287867 0.62089,-0.733778 l 1.337734,0.502356 q -0.254,0.547512 -0.637823,0.982134 -0.383822,0.434623 -0.920045,0.682979 -0.536223,0.248355 -1.253068,0.248355 z M 35.25585,35.40033 v -7.902231 h 1.461913 v 3.781782 l 3.002848,-3.781782 h 1.727201 l -2.291646,2.822225 2.794002,5.080006 H 40.2399 l -2.077158,-3.849515 -1.444979,1.794935 v 2.05458 z m 8.788416,0.135466 -0.790223,-1.196623 q 0.575734,-0.03387 0.936979,-0.09031 0.361245,-0.05645 0.587023,-0.163689 0.231422,-0.112889 0.389467,-0.310445 0.158044,-0.197556 0.310444,-0.519289 l -2.692402,-5.75734 h 1.63689 l 1.631246,3.657604 q 0.0508,0.107245 0.09031,0.220134 0.04516,0.112889 0.08467,0.225778 0.04516,-0.124178 0.09031,-0.231423 0.04515,-0.107244 0.09595,-0.220133 l 1.636891,-3.65196 h 1.631246 l -2.844803,6.084718 q -0.259645,0.547511 -0.513645,0.908756 -0.254,0.361245 -0.564445,0.581378 -0.3048,0.21449 -0.72249,0.321734 -0.412045,0.1016 -0.993423,0.141111 z"
           id="text2"
           inkscape:label="text2"
           aria-label="ЯЦССКУ" />
      </g>
    </g>
  </g>
</svg>
